<svg id="Warstwa_1" data-name="Warstwa 1" xmlns="http://www.w3.org/2000/svg" viewBox="0 0 89.28 75.72"><defs><style>.cls-1{fill:#df007e;}</style></defs><title>ct_ikony</title><path d="M45.2,75.72,0,50.86l17-9.35L45.17,57,72.66,41.49l16.61,9.37ZM10.37,50.86,45.17,70,79.1,50.86l-6.43-3.63L45.2,62.72,17,47.22Z"/><path class="cls-1" d="M45.2,62.72,0,37.86l17-9.35L45.17,44l27.5-15.5,16.6,9.37ZM10.37,37.86,45.17,57,79.1,37.86l-6.43-3.63L45.2,49.72,17,34.22Z"/><path d="M45.2,49.72,0,24.86,45.2,0,89.28,24.86ZM10.37,24.86,45.17,44,79.1,24.86,45.17,5.72Z"/></svg>