<svg id="Warstwa_1" data-name="Warstwa 1" xmlns="http://www.w3.org/2000/svg" viewBox="0 0 341.75 38.04"><title>ct_ikony</title><path d="M330,24.52c15.7,0,15.7-23.65,0-23.65H314.14V37h2.78V24.52Zm0-21.06c12,0,12,18.53,0,18.53H316.92V3.46Zm-42.69-.57c10.38,0,15.54,7.69,15.54,16.06,0,8.16-5.22,16.11-15.54,16.11s-15.43-8-15.49-16.11c-.05-8.52,5.12-16.06,15.49-16.06m0-2.58c-12.18,0-18.22,8.88-18.22,18.58,0,9.55,6.09,18.74,18.22,18.74S305.46,28.5,305.51,19c.05-9.75-6-18.68-18.22-18.68M250.79,37h2.79V3.41h13.06V.93H237.73V3.41h13.06Zm-28.34,0h10.12V.87H221.93l-9.5,12.24L202.94.87H192.25V37h10.12V15.54l9,10.89h1.8l9.25-10.95ZM176,18.94c0,6-3.87,10.22-9.86,10.22-5.78,0-9.86-4.18-9.86-10.22s4-10.22,9.86-10.22c6,0,9.86,4,9.86,10.22m10.22,0C186.21,6.92,178,0,166.13,0S146,7.07,146,18.94c0,12.08,8.26,18.94,20.08,18.94S186.21,31,186.21,18.94M122.66,37h10.17V9.29h10.58V.87H112.13V9.29h10.53ZM107.59,4.44c-3.87-3-8.11-4.28-13.52-4.28-7.64,0-15.13,3.3-15.13,10.94,0,9,6.82,11,14.71,11.72,4,.36,6,1.5,6,3.31,0,2-2.32,3.2-5.68,3.2a14.49,14.49,0,0,1-10.58-4.08L77.8,31.7C82.8,37,87.45,38.1,94,38c8.11-.05,15.85-3.56,15.85-11.77s-7.49-11.2-14.66-12c-3.56-.36-6-.72-6-3.2,0-1.91,2.43-2.69,4.91-2.69a13.5,13.5,0,0,1,8.47,2.48ZM62.57.93V21.11c0,5.47-2.74,8-6.87,8S48.84,26.69,48.84,21V.93H38.67V21c0,11,6.45,16.78,17,16.78s17.09-6,17-16.67V.93ZM28.29,25.6a12.49,12.49,0,0,1-8.52,3.67c-7.12,0-9.61-5.31-9.66-10S12.81,8.87,19.78,8.87A10.66,10.66,0,0,1,27.47,12l6.3-6.19a19.34,19.34,0,0,0-14-5.78C6.2.05-.05,9.91,0,19.2.05,29,5.58,37.94,19.78,37.94a19.76,19.76,0,0,0,14.51-5.63Z"/></svg>